<svg id="Layer_1" data-name="Layer 1" xmlns="http://www.w3.org/2000/svg" viewBox="0 0 311.76 267.3"><defs><style>.cls-1{fill:#f5f6f7;stroke:#000;stroke-miterlimit:10;}.cls-2{font-size:12px;}.cls-2,.cls-5{font-family:Roboto-Medium, Roboto;font-weight:500;}.cls-3{letter-spacing:-0.01em;}.cls-4{letter-spacing:-0.02em;}.cls-5{font-size:7px;}.cls-6{letter-spacing:-0.01em;}.cls-7{letter-spacing:-0.03em;}.cls-8{letter-spacing:-0.02em;}.cls-9{letter-spacing:0.01em;}.cls-10{letter-spacing:-0.08em;}.cls-11{letter-spacing:-0.01em;}.cls-12{letter-spacing:-0.02em;}.cls-13{letter-spacing:-0.01em;}.cls-14{letter-spacing:-0.08em;}.cls-15{letter-spacing:-0.01em;}.cls-16{letter-spacing:-0.01em;}.cls-17{letter-spacing:-0.03em;}.cls-18{letter-spacing:-0.14em;}.cls-19{letter-spacing:0.02em;}.cls-20{letter-spacing:-0.08em;}.cls-21{letter-spacing:-0.1em;}</style></defs><rect class="cls-1" x="0.5" y="15.78" width="151.44" height="112.06" rx="6.96"/><rect class="cls-1" x="159.82" y="15.78" width="151.44" height="112.06" rx="6.96"/><rect class="cls-1" x="0.5" y="136.07" width="151.44" height="112.06" rx="6.96"/><rect class="cls-1" x="159.82" y="136.07" width="151.44" height="112.06" rx="6.96"/><text class="cls-2" transform="translate(49.13 10.27)">St<tspan class="cls-3" x="11.23" y="0">r</tspan><tspan x="15.34" y="0">engths</tspan></text><text class="cls-2" transform="translate(208.39 10.27)"><tspan class="cls-4">W</tspan><tspan x="10.38" y="0">eakness</tspan></text><text class="cls-5" transform="translate(13.29 37.28)">Most popular beer app on the mar<tspan class="cls-6" x="106.08" y="0">k</tspan><tspan x="109.66" y="0">et.</tspan><tspan x="0" y="12">Di</tspan><tspan class="cls-3" x="6.36" y="12">r</tspan><tspan x="8.76" y="12">ect messaging with other users.</tspan><tspan class="cls-7" x="0" y="24">T</tspan><tspan class="cls-3" x="4.03" y="24">r</tspan><tspan x="6.42" y="24">ending beers and locations</tspan><tspan x="0" y="36">Official app of the </tspan><tspan class="cls-8" x="57.69" y="36">A</tspan><tspan x="62.18" y="36">merican Homeb</tspan><tspan class="cls-3" x="112.11" y="36">r</tspan><tspan x="114.51" y="36">ewers</tspan><tspan x="0" y="44.4">Association.</tspan><tspan x="0" y="56.4">A</tspan><tspan class="cls-9" x="4.66" y="56.4">H</tspan><tspan x="9.69" y="56.4">A has a community membership of </tspan><tspan x="0" y="64.8">45,000 members.</tspan></text><text class="cls-5" transform="translate(173.66 37.28)"><tspan class="cls-10">T</tspan><tspan x="3.67" y="0">a</tspan><tspan class="cls-6" x="7.46" y="0">k</tspan><tspan x="11.05" y="0">es aw</tspan><tspan class="cls-11" x="29.15" y="0">a</tspan><tspan x="32.88" y="0">y f</tspan><tspan class="cls-12" x="40.52" y="0">r</tspan><tspan x="42.85" y="0">om </tspan><tspan class="cls-3" x="54.67" y="0">r</tspan><tspan x="57.07" y="0">eal li</tspan><tspan class="cls-13" x="71.72" y="0">f</tspan><tspan x="74.12" y="0">e social </tspan><tspan x="0" y="8.4">experience of drinking bee</tspan><tspan class="cls-14" x="82.84" y="8.4">r</tspan><tspan x="84.71" y="8.4">.</tspan><tspan x="0" y="20.4">User </tspan><tspan class="cls-3" x="16.14" y="20.4">r</tspan><tspan class="cls-15" x="18.53" y="20.4">e</tspan><tspan x="22.24" y="20.4">views of beers c</tspan><tspan class="cls-3" x="72.95" y="20.4">r</tspan><tspan x="75.35" y="20.4">eate a bias.</tspan><tspan x="0" y="32.4">Must join the A</tspan><tspan class="cls-9" x="47.24" y="32.4">H</tspan><tspan x="52.27" y="32.4">A </tspan><tspan class="cls-16" x="58.67" y="32.4">t</tspan><tspan x="60.9" y="32.4">o use the app. </tspan><tspan x="0" y="44.4">Users describe the app as </tspan><tspan class="cls-17" x="82.69" y="44.4">“</tspan><tspan x="85.18" y="44.4">chunky and </tspan><tspan x="0" y="52.8">ha</tspan><tspan class="cls-3" x="7.67" y="52.8">r</tspan><tspan x="10.07" y="52.8">d </tspan><tspan class="cls-16" x="15.76" y="52.8">t</tspan><tspan x="17.99" y="52.8">o use</tspan><tspan class="cls-18" x="34.98" y="52.8">.</tspan><tspan x="35.96" y="52.8">”</tspan></text><circle cx="9.86" cy="35.19" r="1.61"/><circle cx="9.86" cy="47.19" r="1.61"/><circle cx="9.86" cy="59.19" r="1.61"/><circle cx="9.86" cy="71.19" r="1.61"/><circle cx="9.86" cy="91.59" r="1.61"/><circle cx="169.15" cy="35.99" r="1.61"/><circle cx="169.15" cy="56.03" r="1.61"/><circle cx="169.15" cy="65.99" r="1.61"/><circle cx="169.15" cy="79.59" r="1.61"/><text class="cls-2" transform="translate(216.08 263.92)">Th<tspan class="cls-3" x="13.95" y="0">r</tspan><tspan x="18.05" y="0">eats</tspan></text><text class="cls-2" transform="translate(38.02 264.05)">Oppo<tspan class="cls-19" x="28.63" y="0">r</tspan><tspan x="33.14" y="0">tunities</tspan></text><circle cx="13.01" cy="155.95" r="1.61"/><circle cx="13.01" cy="176.66" r="1.61"/><circle cx="13.01" cy="189.36" r="1.61"/><circle cx="172.31" cy="155.95" r="1.61"/><circle cx="172.31" cy="176.66" r="1.61"/><circle cx="172.31" cy="189.36" r="1.61"/><circle cx="13.01" cy="202.88" r="1.61"/><circle cx="13.01" cy="216.41" r="1.61"/><text class="cls-5" transform="translate(16.95 157.91)">Messaging platform that of<tspan class="cls-13" x="85.4" y="0">f</tspan><tspan x="87.8" y="0">ers</tspan><tspan x="0" y="8.4">video chat. </tspan><tspan x="0" y="21.4">Ability </tspan><tspan class="cls-16" x="21.44" y="21.4">t</tspan><tspan x="23.67" y="21.4">o connect </tspan><tspan class="cls-16" x="56.32" y="21.4">t</tspan><tspan x="58.55" y="21.4">o expe</tspan><tspan class="cls-19" x="79.25" y="21.4">r</tspan><tspan x="81.88" y="21.4">t for advice. </tspan><tspan x="0" y="34.4">Of</tspan><tspan class="cls-13" x="7.31" y="34.4">f</tspan><tspan x="9.71" y="34.4">er an app that is f</tspan><tspan class="cls-3" x="64.21" y="34.4">r</tspan><tspan x="66.6" y="34.4">ee </tspan><tspan class="cls-16" x="75.86" y="34.4">t</tspan><tspan x="78.08" y="34.4">o use.</tspan><tspan x="0" y="47.4">St</tspan><tspan class="cls-3" x="6.55" y="47.4">r</tspan><tspan x="8.95" y="47.4">eamline the apps n</tspan><tspan class="cls-11" x="68.18" y="47.4">a</tspan><tspan x="71.92" y="47.4">vigation. </tspan><tspan x="0" y="60.4">C</tspan><tspan class="cls-3" x="4.57" y="60.4">r</tspan><tspan x="6.97" y="60.4">eate a homeb</tspan><tspan class="cls-3" x="49.53" y="60.4">r</tspan><tspan x="51.92" y="60.4">ewers social communit</tspan><tspan class="cls-20" x="124.55" y="60.4">y</tspan><tspan x="127.39" y="60.4">.</tspan></text><text class="cls-5" transform="translate(179.34 157.91)">Competi<tspan class="cls-16" x="26.46" y="0">t</tspan><tspan x="28.68" y="0">ors such as BeerAd</tspan><tspan class="cls-11" x="89.42" y="0">v</tspan><tspan x="92.84" y="0">ocate, </tspan><tspan x="0" y="8.4">myBeerNation, and </tspan><tspan class="cls-8" x="61.29" y="8.4">A</tspan><tspan x="65.79" y="8.4">ny Beer A</tspan><tspan class="cls-13" x="95.62" y="8.4">B</tspan><tspan class="cls-21" x="99.96" y="8.4">V</tspan><tspan x="103.75" y="8.4">.</tspan><tspan x="0" y="20.4">The A</tspan><tspan class="cls-9" x="18.29" y="20.4">H</tspan><tspan x="23.33" y="20.4">A has 45+ thousand members.</tspan><tspan x="0" y="32.4">Competing apps pa</tspan><tspan class="cls-19" x="60.82" y="32.4">r</tspan><tspan x="63.45" y="32.4">tne</tspan><tspan class="cls-3" x="73.42" y="32.4">r</tspan><tspan x="75.82" y="32.4">ed with other</tspan><tspan x="0" y="40.8">indust</tspan><tspan class="cls-9" x="19.46" y="40.8">r</tspan><tspan x="21.98" y="40.8">y leaders: </tspan><tspan x="0" y="49.2">Untappd and </tspan><tspan class="cls-15" x="41.52" y="49.2">P</tspan><tspan x="45.95" y="49.2">ourMyBeer</tspan></text></svg>